<?xml version="1.0" encoding="UTF-8"?>
<svg width="13px" height="14px" viewBox="0 0 13 14" version="1.1" xmlns="http://www.w3.org/2000/svg" xmlns:xlink="http://www.w3.org/1999/xlink">
    <!-- Generator: Sketch 51.3 (57544) - http://www.bohemiancoding.com/sketch -->
    <title></title>
    <desc>Created with Sketch.</desc>
    <defs></defs>
    <g id="Components" stroke="none" stroke-width="1" fill="none" fill-rule="evenodd">
        <g id="I&amp;C-Widgets" transform="translate(-281.000000, -776.000000)" fill="#0075b0">
            <g id="Date-filter" transform="translate(79.000000, 773.000000)">
                <g id="Group-3" transform="translate(3.000000, 0.000000)">
                    <path d="M200,16 L202.25,16 L202.25,13.75 L200,13.75 L200,16 Z M202.75,16 L205.25,16 L205.25,13.75 L202.75,13.75 L202.75,16 Z M200,13.25 L202.25,13.25 L202.25,10.75 L200,10.75 L200,13.25 Z M202.75,13.25 L205.25,13.25 L205.25,10.75 L202.75,10.75 L202.75,13.25 Z M200,10.25 L202.25,10.25 L202.25,8 L200,8 L200,10.25 Z M205.75,16 L208.25,16 L208.25,13.75 L205.75,13.75 L205.75,16 Z M202.75,10.25 L205.25,10.25 L205.25,8 L202.75,8 L202.75,10.25 Z M208.75,16 L211,16 L211,13.75 L208.75,13.75 L208.75,16 Z M205.75,13.25 L208.25,13.25 L208.25,10.75 L205.75,10.75 L205.75,13.25 Z M203,6.5 L203,4.25 C203,4.18229133 202.975261,4.12369816 202.925781,4.07421875 C202.876302,4.02473934 202.817709,4 202.75,4 L202.25,4 C202.182291,4 202.123698,4.02473934 202.074219,4.07421875 C202.024739,4.12369816 202,4.18229133 202,4.25 L202,6.5 C202,6.56770867 202.024739,6.62630184 202.074219,6.67578125 C202.123698,6.72526066 202.182291,6.75 202.25,6.75 L202.75,6.75 C202.817709,6.75 202.876302,6.72526066 202.925781,6.67578125 C202.975261,6.62630184 203,6.56770867 203,6.5 Z M208.75,13.25 L211,13.25 L211,10.75 L208.75,10.75 L208.75,13.25 Z M205.75,10.25 L208.25,10.25 L208.25,8 L205.75,8 L205.75,10.25 Z M208.75,10.25 L211,10.25 L211,8 L208.75,8 L208.75,10.25 Z M209,6.5 L209,4.25 C209,4.18229133 208.975261,4.12369816 208.925781,4.07421875 C208.876302,4.02473934 208.817709,4 208.75,4 L208.25,4 C208.182291,4 208.123698,4.02473934 208.074219,4.07421875 C208.024739,4.12369816 208,4.18229133 208,4.25 L208,6.5 C208,6.56770867 208.024739,6.62630184 208.074219,6.67578125 C208.123698,6.72526066 208.182291,6.75 208.25,6.75 L208.75,6.75 C208.817709,6.75 208.876302,6.72526066 208.925781,6.67578125 C208.975261,6.62630184 209,6.56770867 209,6.5 Z M212,6 L212,16 C212,16.2708347 211.901043,16.5052073 211.703125,16.703125 C211.505207,16.9010427 211.270835,17 211,17 L200,17 C199.729165,17 199.494793,16.9010427 199.296875,16.703125 C199.098957,16.5052073 199,16.2708347 199,16 L199,6 C199,5.72916531 199.098957,5.49479266 199.296875,5.296875 C199.494793,5.09895734 199.729165,5 200,5 L201,5 L201,4.25 C201,3.90624828 201.122395,3.61198039 201.367188,3.3671875 C201.61198,3.12239461 201.906248,3 202.25,3 L202.75,3 C203.093752,3 203.38802,3.12239461 203.632812,3.3671875 C203.877605,3.61198039 204,3.90624828 204,4.25 L204,5 L207,5 L207,4.25 C207,3.90624828 207.122395,3.61198039 207.367188,3.3671875 C207.61198,3.12239461 207.906248,3 208.25,3 L208.75,3 C209.093752,3 209.38802,3.12239461 209.632812,3.3671875 C209.877605,3.61198039 210,3.90624828 210,4.25 L210,5 L211,5 C211.270835,5 211.505207,5.09895734 211.703125,5.296875 C211.901043,5.49479266 212,5.72916531 212,6 Z" id=""></path>
                </g>
            </g>
        </g>
    </g>
</svg>