<svg xmlns="http://www.w3.org/2000/svg" xmlns:xlink="http://www.w3.org/1999/xlink" version="1.1" style="enable-background:new 0 0 47.971 47.971;" xml:space="preserve" width="15" height="14"><rect id="backgroundrect" width="100%" height="100%" x="0" y="0" fill="none" stroke="none" class="" style=""/>
















<g class="currentLayer" style=""><title>Layer 1</title><g id="svg_1" class="">
	<path d="M8.613372327150149,7.045757060042212 L14.369453227740168,1.5051150693687387 c0.35761910599509694,-0.3439404034710899 0.35761910599509694,-0.9019991281466412 0,-1.2459395316177309 c-0.35761910599509694,-0.34423411858934033 -0.9367667708233335,-0.34423411858934033 -1.2943858768184306,0 L7.3189864503317175,5.799817528424482 L1.562600413985729,0.259175537751008 c-0.35761910599509694,-0.34423411858934033 -0.9367667708233335,-0.34423411858934033 -1.2943858768184306,0 c-0.35761910599509694,0.3439404034710899 -0.35761910599509694,0.9019991281466412 0,1.2459395316177309 l5.756386036345988,5.540641990673475 L0.2682145371672986,12.586399050715688 c-0.35761910599509694,0.3439404034710899 -0.35761910599509694,0.9019991281466412 0,1.2459395316177309 C0.4470240901648469,14.004161926509836 0.6813683507486645,14.090220456157171 0.9154074755765138,14.090220456157171 s0.4683833854116671,-0.0860585296473351 0.6471929384092151,-0.2581755889420053 l5.756386036345988,-5.540641990673475 L13.075067350921739,13.832044867215167 c0.17880955299754858,0.17211705929467025 0.4131538135813664,0.2581755889420053 0.6471929384092151,0.2581755889420053 s0.4683833854116671,-0.0860585296473351 0.6471929384092151,-0.2581755889420053 c0.35761910599509694,-0.3439404034710899 0.35761910599509694,-0.9019991281466412 0,-1.2459395316177309 L8.613372327150149,7.045757060042212 z" fill="#c84f00" id="svg_2"/>
</g><g id="svg_3" class="">
</g><g id="svg_4" class="">
</g><g id="svg_5" class="">
</g><g id="svg_6" class="">
</g><g id="svg_7" class="">
</g><g id="svg_8" class="">
</g><g id="svg_9" class="">
</g><g id="svg_10" class="">
</g><g id="svg_11" class="">
</g><g id="svg_12" class="">
</g><g id="svg_13" class="">
</g><g id="svg_14" class="">
</g><g id="svg_15" class="">
</g><g id="svg_16" class="">
</g><g id="svg_17" class="">
</g></g></svg>