<?xml version="1.0" encoding="UTF-8"?>
<svg width="19px" height="18px" viewBox="0 0 19 18" version="1.1" xmlns="http://www.w3.org/2000/svg" xmlns:xlink="http://www.w3.org/1999/xlink">
    <!-- Generator: Sketch 51.3 (57544) - http://www.bohemiancoding.com/sketch -->
    <title>Blue Edit</title>
    <desc>Created with Sketch.</desc>
    <defs>
        <polygon id="path-1" points="4 0 17.3471158 0 17.3471158 11.4257133 4 11.4257133"></polygon>
    </defs>
    <g id="Symbols" stroke="none" stroke-width="1" fill="none" fill-rule="evenodd">
        <g id="Icon/Edit/Blue">
            <g id="Blue-Edit">
                <g id="Group-10">
                    <path d="M14.0132664,15.1170684 L14.0132664,9.77782372 C14.0132664,9.38047175 14.3330153,9.05835434 14.7274456,9.05835434 C15.1218759,9.05835434 15.4416248,9.38047175 15.4416248,9.77782372 L15.4416248,15.5560072 C15.4416248,16.6605767 14.5461943,17.5560072 13.4416248,17.5560072 L2,17.5560072 C0.8954305,17.5560072 1.3527075e-16,16.6605767 0,15.5560072 L0,4 C-1.3527075e-16,2.8954305 0.8954305,2 2,2 L10.5869919,2 C10.9814222,2 11.3011711,2.32211741 11.3011711,2.71946938 C11.3011711,3.11682134 10.9814222,3.43893876 10.5869919,3.43893876 L2.42835833,3.43893876 C1.87607358,3.43893876 1.42835833,3.88665401 1.42835833,4.43893876 L1.42835833,15.1170684 C1.42835833,15.6693532 1.87607358,16.1170684 2.42835833,16.1170684 L13.0132664,16.1170684 C13.5655512,16.1170684 14.0132664,15.6693532 14.0132664,15.1170684 Z" id="Stroke-1" fill="#FFF" fill-rule="nonzero"></path>
                    <mask id="mask-2" fill="white">
                        <use xlink:href="#path-1"></use>
                    </mask>
                    <g id="Clip-4"></g>
                </g>
                <g id="Group-5" transform="translate(5.000000, 0.000000)" fill="#FFF">
                    <path d="M13.1565649,2.7586748 L2.56314537,12.4270975 L0,12.9753302 L0.757859154,9.89468731 L11.3509176,0.226264586 C11.7603565,-0.147530436 12.3792086,-0.0478517632 12.7330447,0.448907523 L13.2565777,1.18301644 C13.6107749,1.6793672 13.5660038,2.38487977 13.1565649,2.7586748" id="Fill-3"></path>
                </g>
            </g>
        </g>
    </g>
</svg>