<?xml version="1.0" encoding="UTF-8"?>
<svg width="17px" height="16px" viewBox="0 0 17 16" version="1.1" xmlns="http://www.w3.org/2000/svg" xmlns:xlink="http://www.w3.org/1999/xlink">
    <!-- Generator: Sketch 51.3 (57544) - http://www.bohemiancoding.com/sketch -->
    <title>Notification</title>
    <desc>Created with Sketch.</desc>
    <defs></defs>
    <g id="Symbols" stroke="none" stroke-width="1" fill="none" fill-rule="evenodd">
        <g id="CTA/Logged-in-" transform="translate(-145.000000, -14.000000)" fill="#FFFFFF" fill-rule="nonzero">
            <g id="Group">
                <path d="M146.496273,25.2925934 C146.356487,25.4164779 146.307692,25.5049284 146.307692,25.5598436 C146.307692,25.9106885 146.014955,26.1951045 145.653846,26.1951045 C145.292737,26.1951045 145,25.9106885 145,25.5598436 C145,25.1071857 145.224753,24.699774 145.605618,24.3623997 C145.688915,24.2856204 145.780997,24.212441 145.885731,24.1382082 L145.935313,24.1063176 C146.000429,24.0684564 146.066613,24.0264299 146.13884,23.9775498 C146.959829,23.4151433 147.590946,22.4454646 148.038287,21.1744996 C148.315313,20.3874248 148.504227,19.5369819 148.61968,18.6854343 C148.660171,18.386789 148.688495,18.1098888 148.706753,17.8623349 C148.71752,17.7163478 148.722512,17.6145207 148.723885,17.5643871 C148.72486,17.5287833 148.728837,17.4939278 148.735576,17.460047 C148.895118,15.485088 151.001766,14 153.5,14 C155.998219,14 158.104857,15.4850702 158.264421,17.4600115 C158.271328,17.4947265 158.275334,17.5304624 158.27618,17.566975 C158.277343,17.6171011 158.281915,17.7189406 158.292092,17.8649561 C158.309351,18.1125701 158.336584,18.3895397 158.37593,18.6882593 C158.488118,19.539988 158.674009,20.3905969 158.948556,21.1777725 C159.377098,22.4064851 159.979713,23.3547052 160.755621,23.9196688 C160.880248,24.0079963 160.999736,24.0840219 161.116442,24.1485621 C161.142147,24.1627775 161.16683,24.1786713 161.19032,24.1961337 C161.70089,24.5756854 162,25.0340205 162,25.5598436 C162,27.0749383 160.004645,27.9164063 156.552962,28.2392115 C156.182354,29.1874181 155.055769,30 153.633058,30 C152.211441,30 150.906406,29.1717314 150.471031,28.2426787 C149.740336,28.1784438 149.246648,28.110616 148.781245,28.0106238 C148.428654,27.9348695 148.20603,27.5957514 148.284,27.2531825 C148.361971,26.9106137 148.71101,26.6943178 149.063601,26.7700722 C149.548114,26.8741699 150.090155,26.9410939 151.02488,27.0130838 C151.348403,27.0380007 151.604153,27.2897055 151.625625,27.604328 C151.633041,27.7129945 151.820602,27.9926832 152.126807,28.2294006 C152.531837,28.5425169 153.053454,28.7294781 153.633058,28.7294781 C154.195307,28.7294781 154.641927,28.5559008 154.967963,28.2613119 C155.214697,28.0383766 155.363625,27.7618377 155.374375,27.604328 C155.395844,27.2897491 155.651528,27.0380633 155.975002,27.0130929 C159.026967,26.7774981 160.692308,26.1296124 160.692308,25.5598436 C160.692308,25.4921939 160.620199,25.3783443 160.42693,25.2288616 C160.279441,25.1451627 160.132591,25.0507401 159.978199,24.9412584 C158.952007,24.1941411 158.215855,23.0357998 157.710038,21.5855271 C157.404692,20.7100424 157.201273,19.7792297 157.078816,18.8495368 C157.036038,18.5247589 157.006344,18.2227664 156.987388,17.950799 C156.97976,17.8413534 156.974803,17.7514861 156.971858,17.6833017 C156.96799,17.6600477 156.965413,17.6363576 156.964203,17.612301 C156.900598,16.348153 155.399032,15.2705219 153.5,15.2705219 C151.600968,15.2705219 150.099402,16.348153 150.035797,17.612301 C150.034542,17.6372368 150.03182,17.6617787 150.027713,17.6858494 C150.024488,17.7539821 150.019167,17.8437818 150.011101,17.9531454 C149.991054,18.2249541 149.960181,18.5267723 149.916173,18.8513622 C149.790202,19.7804865 149.583564,20.7107155 149.275631,21.5856011 C148.747048,23.0873874 147.974186,24.27485 146.88939,25.017962 C146.800816,25.0779194 146.718375,25.1306436 146.634961,25.1800248 C146.582735,25.2179469 146.539218,25.2531573 146.496273,25.2925934 Z" id="Notification"></path>
            </g>
        </g>
    </g>
</svg>