<svg xmlns="http://www.w3.org/2000/svg" xmlns:xlink="http://www.w3.org/1999/xlink" width="24" height="24" version="1.1"><rect id="backgroundrect" width="100%" height="100%" x="0" y="0" fill="none" stroke="none" class="" style=""/>
    <!-- Generator: Sketch 51.3 (57544) - http://www.bohemiancoding.com/sketch -->
    <title>EI_Search_Icon</title>
    <desc>Created with Sketch.</desc>
    <defs/>
    
<g class="currentLayer" style=""><title>Layer 1</title><g id="Symbols" stroke="none" stroke-width="1" fill="none" fill-rule="evenodd" class="">
        <g id="Icon/EI_Search_Icon" fill="#525252" fill-rule="nonzero">
            <g id="EI_Search_Icon">
                <path d="M18.96710658401371,22.97759637771284 C18.75083398945541,22.97759637771284 18.534561394897107,22.88623416547541 18.404797838162125,22.74919084711927 L13.560291720056187,17.63290696182337 C11.78685644467812,15.75998161095612 12.824964898557964,13.521607411139167 13.690055276791167,12.516623076527468 C15.420236033257574,9.775756709404664 15.074199881964292,6.075587113788881 12.868219417469625,3.7458507017344984 C11.613838369031477,2.4210986242918104 9.970166650388391,1.6902009263923967 8.196731375010327,1.6902009263923967 C6.4232960996322594,1.6902009263923967 4.779624380989172,2.4210986242918104 3.5252433325510277,3.7458507017344984 C0.9732267167630777,6.44103596273859 0.9732267167630777,10.872103256253787 3.5252433325510277,13.612969623376591 C5.212169570105774,15.394532762006417 7.677677148070403,16.079749353787115 9.970166650388391,15.394532762006417 C10.402711839504994,15.257489443650277 10.835257028621594,15.531576080362552 10.965020585356575,15.988387141549687 C11.094784142091557,16.44519820273682 10.835257028621594,16.90200926392395 10.402711839504994,17.039052582280096 C7.547913591335424,17.86131249241694 4.476842748607551,17.039052582280096 2.4006258408478636,14.800678382463142 C-0.8002085586149903,11.42027652967835 -0.8002085586149903,5.938543795432741 2.4006258408478636,2.5581419426479517 C3.957788521667629,0.9136221223742677 5.990750910515656,6.217731533182696e-16 8.196731375010327,6.217731533182696e-16 C10.402711839504994,6.217731533182696e-16 12.435674228353022,0.9136221223742677 13.992836909172787,2.5581419426479517 C16.76112611951904,5.4817327342456075 17.19367130863564,10.095524452235663 14.987690844140973,13.567288517257877 C14.94443632522931,13.612969623376591 14.94443632522931,13.658650729495307 14.901181806317648,13.658650729495307 C14.771418249582672,13.795694047851445 13.560291720056187,15.257489443650277 14.684909211759349,16.44519820273682 L18.92385206510205,20.92194660237073 L19.74568792442359,20.054005586115185 L16.155562854755797,16.262473778261963 C15.852781222374176,15.942706035430975 15.852781222374176,15.394532762006417 16.155562854755797,15.074765019175414 C16.458344487137417,14.754997276344426 16.977398714077342,14.754997276344426 17.28018034645896,15.074765019175414 L21.432614161978332,19.4601512065719 C21.735395794359963,19.7799189494029 21.735395794359963,20.328092222827465 21.432614161978332,20.64785996565846 L19.529415329865287,22.74919084711927 C19.399651773130312,22.88623416547541 19.18337917857201,22.97759637771284 18.96710658401371,22.97759637771284 z" id="Shape"/>
            </g>
        </g>
    </g></g></svg>