<?xml version="1.0" encoding="UTF-8"?>
<svg width="16px" height="17px" viewBox="0 0 16 17" version="1.1" xmlns="http://www.w3.org/2000/svg" xmlns:xlink="http://www.w3.org/1999/xlink">
    <!-- Generator: Sketch 51.3 (57544) - http://www.bohemiancoding.com/sketch -->
    <title>Profile</title>
    <desc>Created with Sketch.</desc>
    <defs></defs>
    <g id="Symbols" stroke="none" stroke-width="1" fill="none" fill-rule="evenodd">
        <g id="CTA/Logged-in-" transform="translate(-14.000000, -14.000000)" fill="#FFFFFF" fill-rule="nonzero">
            <g id="Group">
                <g id="EI_Profile_Icon" transform="translate(14.000000, 14.000000)">
                    <path d="M8,16.4666667 C6.66666667,16.4666667 5.46666667,16.4333333 4.4,16.3666667 C4.06666667,16.3333333 3.83333333,16.0666667 3.83333333,15.7333333 C3.86666667,15.4 4.13333333,15.1333333 4.46666667,15.1666667 C5.53333333,15.2333333 6.7,15.2666667 8,15.2666667 C10.0666667,15.2666667 11.8333333,15.1666667 13.2333333,15 C14.0333333,14.9 14.4666667,14.8 14.6666667,14.7666667 C14.3666667,13.4666667 13.6666667,12.8 12.6333333,12.1333333 C12.3666667,11.9666667 12.0333333,11.8333333 11.6333333,11.6666667 L11.5666667,11.6666667 C10.7,11.3333333 9.63333333,10.9 9.33333333,10.0333333 C9.16666667,9.43333333 9.33333333,8.76666667 9.9,7.9 C11.1333333,5.93333333 11.3666667,4.26666667 10.6,2.93333333 C10.0333333,1.93333333 9.06666667,1.36666667 8,1.36666667 C6.93333333,1.36666667 5.96666667,1.96666667 5.4,2.93333333 C4.63333333,4.23333333 4.86666667,5.9 6.13333333,7.9 C6.66666667,8.76666667 6.86666667,9.43333333 6.66666667,10.0333333 C6.4,10.9 5.3,11.3333333 4.43333333,11.6666667 L4.36666667,11.7 C3.96666667,11.8666667 3.6,12 3.36666667,12.1666667 C2.3,12.8333333 1.6,13.5333333 1.3,14.8666667 C1.23333333,15.2 0.9,15.4 0.6,15.3333333 C0.266666667,15.2666667 0.0666666667,14.9333333 0.133333333,14.6333333 C0.533333333,12.8 1.6,11.8666667 2.73333333,11.1666667 C3.06666667,10.9666667 3.5,10.7666667 3.93333333,10.6 L4,10.5666667 C4.53333333,10.3666667 5.4,10 5.53333333,9.66666667 C5.56666667,9.6 5.6,9.3 5.13333333,8.56666667 C3.6,6.16666667 3.33333333,4.1 4.33333333,2.36666667 C5.13333333,1 6.5,0.2 7.96666667,0.2 C9.43333333,0.2 10.8,1 11.6,2.36666667 C12.6,4.1 12.3666667,6.16666667 10.8666667,8.56666667 C10.4,9.3 10.4333333,9.6 10.4333333,9.7 C10.5333333,10.0333333 11.4666667,10.3666667 11.9666667,10.5666667 L12.0333333,10.6 C12.4333333,10.7666667 12.8333333,10.9333333 13.2,11.1333333 C14.3333333,11.8333333 15.4,12.7666667 15.8,14.6 C15.9333333,15.1666667 15.6,15.7333333 15.0333333,15.9 C15,15.9 14.9666667,15.9 14.9666667,15.9333333 L14.9333333,15.9333333 C14.7333333,15.9666667 14.2666667,16.1 13.3333333,16.2 C11.9,16.4 10.1,16.4666667 8,16.4666667 Z" id="Profile"></path>
                </g>
            </g>
        </g>
    </g>
</svg>