<svg xmlns="http://www.w3.org/2000/svg" xmlns:xlink="http://www.w3.org/1999/xlink" version="1.1" style="enable-background:new 0 0 512 512;" xml:space="preserve" width="21" height="22"><rect id="backgroundrect" width="100%" height="100%" x="0" y="0" fill="none" stroke="none" class="" style=""/>


















<g class="currentLayer" style=""><title>Layer 1</title><g class="" id="svg_25"><g id="svg_1" class="">
	<g id="svg_2">
		<path d="M21.01510312997862,18.26723793146165 L12.282543136159575,1.0966642170931493 c-0.34403992776128645,-0.6764365587921926 -0.9716196509545537,-1.0966643284259399 -1.6378695618222228,-1.0966643284259399 c-0.6662499108676686,0 -1.293829634060936,0.4202277696337476 -1.6379111426691848,1.096713627788872 L0.2742440186960841,18.26723793146165 c-0.3555578223696835,0.6991635651039189 -0.366077776650999,1.5751146456825702 -0.027484939841698166,2.2860114591643432 c0.33867599850322433,0.7108968134817737 0.9767756759778073,1.152520506628079 1.6653545016639208,1.152520506628079 h17.465119987638094 c0.6885788256861134,0 1.326720084007658,-0.4416236931463058 1.665396082510883,-1.152569805991011 C21.38122248747658,19.842253978418356 21.370702533195267,18.966302897839704 21.01510312997862,18.26723793146165 zM19.835703986756343,19.745134233441995 c-0.0932242588881804,0.19566917147775034 -0.26890333730145505,0.31729069983139346 -0.4584704185999449,0.31729069983139346 H1.9121135805183067 c-0.18956708129848976,0 -0.36524615971176455,-0.12157222899071107 -0.45842883775298326,-0.3172414004684614 c-0.0932242588881804,-0.19571847084068247 -0.09031359960085981,-0.4368909543048183 0.007526133300071661,-0.6293063678290455 L10.193812450731404,1.9453034506073834 c0.09472116937880236,-0.1862036937947753 0.2674895885047565,-0.30190929859655896 0.4509027044529116,-0.30190929859655896 c0.18337153510119325,0 0.3561399542271474,0.11570560480178385 0.45086112360594977,0.30190929859655896 l8.732518412972084,17.170573714368498 C19.926017586357204,19.308341877863043 19.92892824564452,19.549465061964256 19.835703986756343,19.745134233441995 z" fill="#FFFFFF" id="svg_3"/>
	</g>
</g><g id="svg_4" class="">
	<g id="svg_5">
		<path d="M10.65111860561642,6.761308916087344 c-0.5272451394746327,0 -0.9387292010078317,0.3354328653904292 -0.9387292010078317,0.9300817810781649 c0,1.8143151546294192 0.1800034864972938,4.421462663933865 0.1800034864972938,6.235827117926216 c0.000041580846961721865,0.47263299243063533 0.34728323382430065,0.6708164314179258 0.7587672953575,0.6708164314179258 c0.30861304614989954,0 0.7458356519524045,-0.1981834389872906 0.7458356519524045,-0.6708164314179258 c0,-1.8143151546294192 0.1800034864972938,-4.421462663933865 0.1800034864972938,-6.235827117926216 C11.576999324913077,7.096791080840703 11.152666781668707,6.761308916087344 10.65111860561642,6.761308916087344 z" fill="#FFFFFF" id="svg_6"/>
	</g>
</g><g id="svg_7" class="">
	<g id="svg_8">
		<path d="M10.664050249021514,15.650033352119046 c-0.5657905846081489,0 -0.9902062895464434,0.5336163043777195 -0.9902062895464434,1.1740150288665014 c0,0.625115921979812 0.4243741240913329,1.1740150288665014 0.9902062895464434,1.1740150288665014 c0.5272451394746327,0 0.9773578078352715,-0.5488991068866897 0.9773578078352715,-1.1740150288665014 C11.641408056856788,16.18364965649677 11.191253807649186,15.650033352119046 10.664050249021514,15.650033352119046 z" fill="#FFFFFF" id="svg_9"/>
	</g>
</g><g id="svg_10" class="">
</g><g id="svg_11" class="">
</g><g id="svg_12" class="">
</g><g id="svg_13" class="">
</g><g id="svg_14" class="">
</g><g id="svg_15" class="">
</g><g id="svg_16" class="">
</g><g id="svg_17" class="">
</g><g id="svg_18" class="">
</g><g id="svg_19" class="">
</g><g id="svg_20" class="">
</g><g id="svg_21" class="">
</g><g id="svg_22" class="">
</g><g id="svg_23" class="">
</g><g id="svg_24" class="">
</g></g></g></svg>